M48
; DRILL file {KiCad (5.1.4)-1} date 31.10.2019 11:32:29
; FORMAT={-:-/ absolute / metric / decimal}
; #@! TF.CreationDate,2019-10-31T11:32:29+01:00
; #@! TF.GenerationSoftware,Kicad,Pcbnew,(5.1.4)-1
FMAT,2
METRIC
T1C0.500
T2C0.762
T3C0.900
T4C1.000
T5C1.020
T6C1.500
T7C2.700
T8C3.500
T9C1.100
T10C3.500
T11C4.300
%
G90
G05
T1
X101.0Y-57.0
X101.0Y-59.0
X101.0Y-69.0
X101.0Y-79.0
X101.0Y-89.0
X101.0Y-99.1
X101.0Y-109.0
X101.0Y-119.0
X101.0Y-129.0
X101.0Y-139.0
X101.0Y-143.0
X102.6Y-105.6
X103.6Y-110.0
X104.2Y-119.0
X104.6Y-134.6
X106.6Y-104.8
X107.0Y-51.0
X107.0Y-119.0
X107.0Y-149.0
X107.35Y-97.2
X107.4Y-115.0
X108.2Y-95.6
X109.1Y-97.2
X109.25Y-110.0
X110.0Y-95.6
X110.0Y-104.4
X110.8Y-110.0
X110.85Y-97.2
X111.0Y-51.0
X111.0Y-149.0
X111.7Y-95.6
X111.9Y-119.0
X112.6Y-115.0
X113.4Y-104.8
X114.4Y-105.6
X114.8Y-101.2
X115.5Y-94.2
X115.6Y-121.8
X116.4Y-110.0
X116.8Y-118.8
X118.2Y-129.2
X119.5Y-140.3
X119.8Y-68.0
X119.9Y-60.0
X119.9Y-82.1
X120.6Y-66.0
X121.0Y-51.0
X121.0Y-149.0
X121.3Y-128.3
X121.6Y-138.8
X121.7Y-122.4
X121.8Y-106.9
X122.0Y-75.6
X123.5Y-69.7
X124.2Y-73.8
X124.6Y-79.4
X124.6Y-126.4
X124.6Y-131.7
X124.7Y-59.6
X126.0Y-65.5
X126.2Y-81.0
X126.3Y-133.4
X126.4Y-75.6
X126.4Y-79.8
X127.5Y-74.0
X127.8Y-62.0
X128.3Y-72.7
X128.4Y-69.7
X128.4Y-75.8
X128.6Y-62.0
X129.3Y-79.3
X129.3Y-115.4
X129.7Y-129.5
X130.0Y-54.0
X130.0Y-54.75
X130.5Y-69.5
X130.8Y-71.4
X131.0Y-51.0
X131.4Y-62.0
X131.4Y-137.8
X131.5Y-70.7
X132.0Y-139.1
X132.0Y-141.3
X132.2Y-62.0
X132.425Y-60.375
X133.5Y-131.75
X133.8Y-76.4
X134.0Y-121.3
X135.4Y-66.8
X136.0Y-66.2
X136.2Y-137.8
X137.6Y-55.2
X138.5Y-75.0
X138.5Y-76.5
X139.925Y-130.275
X140.0Y-75.0
X140.0Y-76.5
X140.4Y-61.8
X140.725Y-130.275
X140.9Y-127.9
X141.0Y-51.0
X141.2Y-65.4
X141.525Y-130.275
X142.6Y-138.8
X142.8Y-62.0
X142.8Y-136.6
X143.4Y-144.2
X143.6Y-62.0
X143.75Y-127.05
X144.0Y-72.4
X144.6Y-143.6
X145.0Y-54.0
X145.0Y-54.75
X146.1Y-142.0
X146.125Y-130.275
X146.4Y-62.0
X146.8Y-77.2
X146.8Y-128.1
X146.925Y-130.275
X147.0Y-145.8
X147.2Y-62.0
X147.25Y-133.0
X147.25Y-138.0
X147.425Y-60.375
X147.7Y-142.1
X147.725Y-130.275
X148.2Y-145.8
X148.75Y-138.0
X149.0Y-70.5
X149.0Y-72.0
X149.0Y-142.0
X149.4Y-145.8
X149.5Y-136.75
X149.75Y-127.05
X150.0Y-139.4
X150.2Y-140.6
X150.5Y-70.5
X150.5Y-72.0
X150.6Y-145.8
X151.0Y-51.0
X151.0Y-141.25
X151.0Y-149.0
X151.2Y-136.8
X151.75Y-145.25
X152.1Y-144.2
X152.125Y-130.275
X152.2Y-65.0
X152.3Y-69.0
X152.4Y-65.8
X152.6Y-59.2
X152.8Y-77.2
X152.925Y-130.275
X153.1Y-128.2
X153.725Y-130.275
X153.8Y-143.0
X154.6Y-140.2
X154.8Y-65.45
X154.8Y-141.4
X155.0Y-70.5
X155.0Y-72.0
X155.75Y-127.05
X156.0Y-139.0
X156.2Y-140.4
X156.5Y-70.5
X156.5Y-72.0
X157.0Y-138.6
X157.8Y-62.0
X158.0Y-138.0
X158.2Y-134.2
X158.4Y-131.4
X158.4Y-144.6
X158.6Y-62.0
X158.8Y-77.2
X159.0Y-137.2
X159.25Y-123.75
X159.25Y-125.0
X159.25Y-132.0
X159.6Y-128.5
X160.0Y-54.0
X160.0Y-54.75
X160.5Y-129.2
X160.6Y-127.4
X160.75Y-123.75
X161.0Y-51.0
X161.4Y-62.0
X162.2Y-62.0
X162.4Y-60.375
X162.5Y-121.25
X162.5Y-122.25
X163.0Y-69.6
X163.2Y-135.9
X163.5Y-124.75
X164.0Y-121.25
X164.0Y-122.25
X165.0Y-75.0
X165.0Y-76.5
X165.5Y-121.25
X166.0Y-143.0
X166.3Y-71.1
X166.5Y-75.0
X166.5Y-76.5
X167.2Y-64.8
X167.4Y-55.4
X167.8Y-65.4
X169.8Y-65.45
X170.4Y-115.6
X170.6Y-84.3
X171.0Y-51.0
X172.0Y-76.9
X172.0Y-79.0
X172.6Y-134.3
X172.8Y-62.0
X173.4Y-142.0
X173.6Y-62.0
X174.3Y-83.7
X174.7Y-116.4
X174.9Y-100.7
X175.0Y-54.0
X175.0Y-54.75
X175.4Y-124.4
X176.0Y-142.0
X176.4Y-62.0
X177.2Y-62.0
X177.425Y-60.375
X179.4Y-67.4
X180.0Y-119.5
X180.0Y-128.0
X180.0Y-135.5
X180.0Y-142.5
X180.4Y-56.5
X181.0Y-51.0
X187.0Y-98.0
X189.4Y-113.5
X190.0Y-119.5
X190.2Y-85.5
X191.0Y-51.0
X192.5Y-93.0
X192.5Y-95.0
X193.0Y-51.0
X193.75Y-93.0
X193.75Y-95.0
X195.0Y-91.25
X195.0Y-96.75
X196.25Y-91.25
X196.25Y-96.75
X199.0Y-57.0
X199.0Y-59.0
X199.0Y-69.0
X199.0Y-79.0
X199.0Y-89.0
X199.0Y-99.0
X199.0Y-109.0
X199.0Y-119.0
T2
X189.38Y-104.46
X189.38Y-107.0
X191.92Y-104.46
X191.92Y-107.0
X194.46Y-104.46
X194.46Y-107.0
X197.0Y-104.46
X197.0Y-107.0
T3
X104.25Y-124.75
X104.25Y-126.75
X104.25Y-128.75
T4
X187.5Y-70.75
X187.5Y-75.75
X130.92Y-147.75
X133.46Y-147.75
X136.0Y-147.75
X138.54Y-147.75
X112.5Y-70.75
X112.5Y-75.75
X158.38Y-147.75
X160.92Y-147.75
X163.46Y-147.75
X166.0Y-147.75
X170.88Y-147.75
X173.42Y-147.75
X175.96Y-147.75
X178.5Y-147.75
X186.0Y-53.5
X188.54Y-53.5
T5
X119.13Y-145.75
X121.67Y-145.75
X124.21Y-145.75
X126.75Y-145.75
T6
X104.25Y-122.65
X104.25Y-130.85
T7
X195.5Y-70.75
X195.5Y-75.75
X104.5Y-70.75
X104.5Y-75.75
T8
X195.0Y-55.0
X195.0Y-145.0
X105.0Y-145.0
X105.0Y-55.0
T9
X121.67Y-143.59
T10
X132.779Y-82.906
X132.779Y-116.916
X166.789Y-82.906
X166.789Y-116.916
T11
X112.5Y-62.5
X112.5Y-137.5
X187.5Y-62.5
X187.5Y-137.5
T0
M30
