G04 #@! TF.GenerationSoftware,KiCad,Pcbnew,(5.1.4)-1*
G04 #@! TF.CreationDate,2019-10-31T11:31:03+01:00*
G04 #@! TF.ProjectId,LED_Strahler,4c45445f-5374-4726-9168-6c65722e6b69,rev?*
G04 #@! TF.SameCoordinates,Original*
G04 #@! TF.FileFunction,Paste,Top*
G04 #@! TF.FilePolarity,Positive*
%FSLAX46Y46*%
G04 Gerber Fmt 4.6, Leading zero omitted, Abs format (unit mm)*
G04 Created by KiCad (PCBNEW (5.1.4)-1) date 2019-10-31 11:31:03*
%MOMM*%
%LPD*%
G04 APERTURE LIST*
%ADD10R,4.500000X2.000000*%
%ADD11C,0.100000*%
%ADD12C,0.950000*%
%ADD13R,5.400000X2.900000*%
G04 APERTURE END LIST*
D10*
X152250000Y-134000000D03*
X143750000Y-134000000D03*
D11*
G36*
X150310779Y-137526144D02*
G01*
X150333834Y-137529563D01*
X150356443Y-137535227D01*
X150378387Y-137543079D01*
X150399457Y-137553044D01*
X150419448Y-137565026D01*
X150438168Y-137578910D01*
X150455438Y-137594562D01*
X150471090Y-137611832D01*
X150484974Y-137630552D01*
X150496956Y-137650543D01*
X150506921Y-137671613D01*
X150514773Y-137693557D01*
X150520437Y-137716166D01*
X150523856Y-137739221D01*
X150525000Y-137762500D01*
X150525000Y-138237500D01*
X150523856Y-138260779D01*
X150520437Y-138283834D01*
X150514773Y-138306443D01*
X150506921Y-138328387D01*
X150496956Y-138349457D01*
X150484974Y-138369448D01*
X150471090Y-138388168D01*
X150455438Y-138405438D01*
X150438168Y-138421090D01*
X150419448Y-138434974D01*
X150399457Y-138446956D01*
X150378387Y-138456921D01*
X150356443Y-138464773D01*
X150333834Y-138470437D01*
X150310779Y-138473856D01*
X150287500Y-138475000D01*
X149712500Y-138475000D01*
X149689221Y-138473856D01*
X149666166Y-138470437D01*
X149643557Y-138464773D01*
X149621613Y-138456921D01*
X149600543Y-138446956D01*
X149580552Y-138434974D01*
X149561832Y-138421090D01*
X149544562Y-138405438D01*
X149528910Y-138388168D01*
X149515026Y-138369448D01*
X149503044Y-138349457D01*
X149493079Y-138328387D01*
X149485227Y-138306443D01*
X149479563Y-138283834D01*
X149476144Y-138260779D01*
X149475000Y-138237500D01*
X149475000Y-137762500D01*
X149476144Y-137739221D01*
X149479563Y-137716166D01*
X149485227Y-137693557D01*
X149493079Y-137671613D01*
X149503044Y-137650543D01*
X149515026Y-137630552D01*
X149528910Y-137611832D01*
X149544562Y-137594562D01*
X149561832Y-137578910D01*
X149580552Y-137565026D01*
X149600543Y-137553044D01*
X149621613Y-137543079D01*
X149643557Y-137535227D01*
X149666166Y-137529563D01*
X149689221Y-137526144D01*
X149712500Y-137525000D01*
X150287500Y-137525000D01*
X150310779Y-137526144D01*
X150310779Y-137526144D01*
G37*
D12*
X150000000Y-138000000D03*
D11*
G36*
X152060779Y-137526144D02*
G01*
X152083834Y-137529563D01*
X152106443Y-137535227D01*
X152128387Y-137543079D01*
X152149457Y-137553044D01*
X152169448Y-137565026D01*
X152188168Y-137578910D01*
X152205438Y-137594562D01*
X152221090Y-137611832D01*
X152234974Y-137630552D01*
X152246956Y-137650543D01*
X152256921Y-137671613D01*
X152264773Y-137693557D01*
X152270437Y-137716166D01*
X152273856Y-137739221D01*
X152275000Y-137762500D01*
X152275000Y-138237500D01*
X152273856Y-138260779D01*
X152270437Y-138283834D01*
X152264773Y-138306443D01*
X152256921Y-138328387D01*
X152246956Y-138349457D01*
X152234974Y-138369448D01*
X152221090Y-138388168D01*
X152205438Y-138405438D01*
X152188168Y-138421090D01*
X152169448Y-138434974D01*
X152149457Y-138446956D01*
X152128387Y-138456921D01*
X152106443Y-138464773D01*
X152083834Y-138470437D01*
X152060779Y-138473856D01*
X152037500Y-138475000D01*
X151462500Y-138475000D01*
X151439221Y-138473856D01*
X151416166Y-138470437D01*
X151393557Y-138464773D01*
X151371613Y-138456921D01*
X151350543Y-138446956D01*
X151330552Y-138434974D01*
X151311832Y-138421090D01*
X151294562Y-138405438D01*
X151278910Y-138388168D01*
X151265026Y-138369448D01*
X151253044Y-138349457D01*
X151243079Y-138328387D01*
X151235227Y-138306443D01*
X151229563Y-138283834D01*
X151226144Y-138260779D01*
X151225000Y-138237500D01*
X151225000Y-137762500D01*
X151226144Y-137739221D01*
X151229563Y-137716166D01*
X151235227Y-137693557D01*
X151243079Y-137671613D01*
X151253044Y-137650543D01*
X151265026Y-137630552D01*
X151278910Y-137611832D01*
X151294562Y-137594562D01*
X151311832Y-137578910D01*
X151330552Y-137565026D01*
X151350543Y-137553044D01*
X151371613Y-137543079D01*
X151393557Y-137535227D01*
X151416166Y-137529563D01*
X151439221Y-137526144D01*
X151462500Y-137525000D01*
X152037500Y-137525000D01*
X152060779Y-137526144D01*
X152060779Y-137526144D01*
G37*
D12*
X151750000Y-138000000D03*
D11*
G36*
X144560779Y-137526144D02*
G01*
X144583834Y-137529563D01*
X144606443Y-137535227D01*
X144628387Y-137543079D01*
X144649457Y-137553044D01*
X144669448Y-137565026D01*
X144688168Y-137578910D01*
X144705438Y-137594562D01*
X144721090Y-137611832D01*
X144734974Y-137630552D01*
X144746956Y-137650543D01*
X144756921Y-137671613D01*
X144764773Y-137693557D01*
X144770437Y-137716166D01*
X144773856Y-137739221D01*
X144775000Y-137762500D01*
X144775000Y-138237500D01*
X144773856Y-138260779D01*
X144770437Y-138283834D01*
X144764773Y-138306443D01*
X144756921Y-138328387D01*
X144746956Y-138349457D01*
X144734974Y-138369448D01*
X144721090Y-138388168D01*
X144705438Y-138405438D01*
X144688168Y-138421090D01*
X144669448Y-138434974D01*
X144649457Y-138446956D01*
X144628387Y-138456921D01*
X144606443Y-138464773D01*
X144583834Y-138470437D01*
X144560779Y-138473856D01*
X144537500Y-138475000D01*
X143962500Y-138475000D01*
X143939221Y-138473856D01*
X143916166Y-138470437D01*
X143893557Y-138464773D01*
X143871613Y-138456921D01*
X143850543Y-138446956D01*
X143830552Y-138434974D01*
X143811832Y-138421090D01*
X143794562Y-138405438D01*
X143778910Y-138388168D01*
X143765026Y-138369448D01*
X143753044Y-138349457D01*
X143743079Y-138328387D01*
X143735227Y-138306443D01*
X143729563Y-138283834D01*
X143726144Y-138260779D01*
X143725000Y-138237500D01*
X143725000Y-137762500D01*
X143726144Y-137739221D01*
X143729563Y-137716166D01*
X143735227Y-137693557D01*
X143743079Y-137671613D01*
X143753044Y-137650543D01*
X143765026Y-137630552D01*
X143778910Y-137611832D01*
X143794562Y-137594562D01*
X143811832Y-137578910D01*
X143830552Y-137565026D01*
X143850543Y-137553044D01*
X143871613Y-137543079D01*
X143893557Y-137535227D01*
X143916166Y-137529563D01*
X143939221Y-137526144D01*
X143962500Y-137525000D01*
X144537500Y-137525000D01*
X144560779Y-137526144D01*
X144560779Y-137526144D01*
G37*
D12*
X144250000Y-138000000D03*
D11*
G36*
X146310779Y-137526144D02*
G01*
X146333834Y-137529563D01*
X146356443Y-137535227D01*
X146378387Y-137543079D01*
X146399457Y-137553044D01*
X146419448Y-137565026D01*
X146438168Y-137578910D01*
X146455438Y-137594562D01*
X146471090Y-137611832D01*
X146484974Y-137630552D01*
X146496956Y-137650543D01*
X146506921Y-137671613D01*
X146514773Y-137693557D01*
X146520437Y-137716166D01*
X146523856Y-137739221D01*
X146525000Y-137762500D01*
X146525000Y-138237500D01*
X146523856Y-138260779D01*
X146520437Y-138283834D01*
X146514773Y-138306443D01*
X146506921Y-138328387D01*
X146496956Y-138349457D01*
X146484974Y-138369448D01*
X146471090Y-138388168D01*
X146455438Y-138405438D01*
X146438168Y-138421090D01*
X146419448Y-138434974D01*
X146399457Y-138446956D01*
X146378387Y-138456921D01*
X146356443Y-138464773D01*
X146333834Y-138470437D01*
X146310779Y-138473856D01*
X146287500Y-138475000D01*
X145712500Y-138475000D01*
X145689221Y-138473856D01*
X145666166Y-138470437D01*
X145643557Y-138464773D01*
X145621613Y-138456921D01*
X145600543Y-138446956D01*
X145580552Y-138434974D01*
X145561832Y-138421090D01*
X145544562Y-138405438D01*
X145528910Y-138388168D01*
X145515026Y-138369448D01*
X145503044Y-138349457D01*
X145493079Y-138328387D01*
X145485227Y-138306443D01*
X145479563Y-138283834D01*
X145476144Y-138260779D01*
X145475000Y-138237500D01*
X145475000Y-137762500D01*
X145476144Y-137739221D01*
X145479563Y-137716166D01*
X145485227Y-137693557D01*
X145493079Y-137671613D01*
X145503044Y-137650543D01*
X145515026Y-137630552D01*
X145528910Y-137611832D01*
X145544562Y-137594562D01*
X145561832Y-137578910D01*
X145580552Y-137565026D01*
X145600543Y-137553044D01*
X145621613Y-137543079D01*
X145643557Y-137535227D01*
X145666166Y-137529563D01*
X145689221Y-137526144D01*
X145712500Y-137525000D01*
X146287500Y-137525000D01*
X146310779Y-137526144D01*
X146310779Y-137526144D01*
G37*
D12*
X146000000Y-138000000D03*
D11*
G36*
X161435779Y-121776144D02*
G01*
X161458834Y-121779563D01*
X161481443Y-121785227D01*
X161503387Y-121793079D01*
X161524457Y-121803044D01*
X161544448Y-121815026D01*
X161563168Y-121828910D01*
X161580438Y-121844562D01*
X161596090Y-121861832D01*
X161609974Y-121880552D01*
X161621956Y-121900543D01*
X161631921Y-121921613D01*
X161639773Y-121943557D01*
X161645437Y-121966166D01*
X161648856Y-121989221D01*
X161650000Y-122012500D01*
X161650000Y-122487500D01*
X161648856Y-122510779D01*
X161645437Y-122533834D01*
X161639773Y-122556443D01*
X161631921Y-122578387D01*
X161621956Y-122599457D01*
X161609974Y-122619448D01*
X161596090Y-122638168D01*
X161580438Y-122655438D01*
X161563168Y-122671090D01*
X161544448Y-122684974D01*
X161524457Y-122696956D01*
X161503387Y-122706921D01*
X161481443Y-122714773D01*
X161458834Y-122720437D01*
X161435779Y-122723856D01*
X161412500Y-122725000D01*
X160837500Y-122725000D01*
X160814221Y-122723856D01*
X160791166Y-122720437D01*
X160768557Y-122714773D01*
X160746613Y-122706921D01*
X160725543Y-122696956D01*
X160705552Y-122684974D01*
X160686832Y-122671090D01*
X160669562Y-122655438D01*
X160653910Y-122638168D01*
X160640026Y-122619448D01*
X160628044Y-122599457D01*
X160618079Y-122578387D01*
X160610227Y-122556443D01*
X160604563Y-122533834D01*
X160601144Y-122510779D01*
X160600000Y-122487500D01*
X160600000Y-122012500D01*
X160601144Y-121989221D01*
X160604563Y-121966166D01*
X160610227Y-121943557D01*
X160618079Y-121921613D01*
X160628044Y-121900543D01*
X160640026Y-121880552D01*
X160653910Y-121861832D01*
X160669562Y-121844562D01*
X160686832Y-121828910D01*
X160705552Y-121815026D01*
X160725543Y-121803044D01*
X160746613Y-121793079D01*
X160768557Y-121785227D01*
X160791166Y-121779563D01*
X160814221Y-121776144D01*
X160837500Y-121775000D01*
X161412500Y-121775000D01*
X161435779Y-121776144D01*
X161435779Y-121776144D01*
G37*
D12*
X161125000Y-122250000D03*
D11*
G36*
X159685779Y-121776144D02*
G01*
X159708834Y-121779563D01*
X159731443Y-121785227D01*
X159753387Y-121793079D01*
X159774457Y-121803044D01*
X159794448Y-121815026D01*
X159813168Y-121828910D01*
X159830438Y-121844562D01*
X159846090Y-121861832D01*
X159859974Y-121880552D01*
X159871956Y-121900543D01*
X159881921Y-121921613D01*
X159889773Y-121943557D01*
X159895437Y-121966166D01*
X159898856Y-121989221D01*
X159900000Y-122012500D01*
X159900000Y-122487500D01*
X159898856Y-122510779D01*
X159895437Y-122533834D01*
X159889773Y-122556443D01*
X159881921Y-122578387D01*
X159871956Y-122599457D01*
X159859974Y-122619448D01*
X159846090Y-122638168D01*
X159830438Y-122655438D01*
X159813168Y-122671090D01*
X159794448Y-122684974D01*
X159774457Y-122696956D01*
X159753387Y-122706921D01*
X159731443Y-122714773D01*
X159708834Y-122720437D01*
X159685779Y-122723856D01*
X159662500Y-122725000D01*
X159087500Y-122725000D01*
X159064221Y-122723856D01*
X159041166Y-122720437D01*
X159018557Y-122714773D01*
X158996613Y-122706921D01*
X158975543Y-122696956D01*
X158955552Y-122684974D01*
X158936832Y-122671090D01*
X158919562Y-122655438D01*
X158903910Y-122638168D01*
X158890026Y-122619448D01*
X158878044Y-122599457D01*
X158868079Y-122578387D01*
X158860227Y-122556443D01*
X158854563Y-122533834D01*
X158851144Y-122510779D01*
X158850000Y-122487500D01*
X158850000Y-122012500D01*
X158851144Y-121989221D01*
X158854563Y-121966166D01*
X158860227Y-121943557D01*
X158868079Y-121921613D01*
X158878044Y-121900543D01*
X158890026Y-121880552D01*
X158903910Y-121861832D01*
X158919562Y-121844562D01*
X158936832Y-121828910D01*
X158955552Y-121815026D01*
X158975543Y-121803044D01*
X158996613Y-121793079D01*
X159018557Y-121785227D01*
X159041166Y-121779563D01*
X159064221Y-121776144D01*
X159087500Y-121775000D01*
X159662500Y-121775000D01*
X159685779Y-121776144D01*
X159685779Y-121776144D01*
G37*
D12*
X159375000Y-122250000D03*
D13*
X175000000Y-66850000D03*
X175000000Y-57150000D03*
X160000000Y-66850000D03*
X160000000Y-57150000D03*
X145000000Y-66850000D03*
X145000000Y-57150000D03*
X130000000Y-66850000D03*
X130000000Y-57150000D03*
D11*
G36*
X111185779Y-108276144D02*
G01*
X111208834Y-108279563D01*
X111231443Y-108285227D01*
X111253387Y-108293079D01*
X111274457Y-108303044D01*
X111294448Y-108315026D01*
X111313168Y-108328910D01*
X111330438Y-108344562D01*
X111346090Y-108361832D01*
X111359974Y-108380552D01*
X111371956Y-108400543D01*
X111381921Y-108421613D01*
X111389773Y-108443557D01*
X111395437Y-108466166D01*
X111398856Y-108489221D01*
X111400000Y-108512500D01*
X111400000Y-108987500D01*
X111398856Y-109010779D01*
X111395437Y-109033834D01*
X111389773Y-109056443D01*
X111381921Y-109078387D01*
X111371956Y-109099457D01*
X111359974Y-109119448D01*
X111346090Y-109138168D01*
X111330438Y-109155438D01*
X111313168Y-109171090D01*
X111294448Y-109184974D01*
X111274457Y-109196956D01*
X111253387Y-109206921D01*
X111231443Y-109214773D01*
X111208834Y-109220437D01*
X111185779Y-109223856D01*
X111162500Y-109225000D01*
X110587500Y-109225000D01*
X110564221Y-109223856D01*
X110541166Y-109220437D01*
X110518557Y-109214773D01*
X110496613Y-109206921D01*
X110475543Y-109196956D01*
X110455552Y-109184974D01*
X110436832Y-109171090D01*
X110419562Y-109155438D01*
X110403910Y-109138168D01*
X110390026Y-109119448D01*
X110378044Y-109099457D01*
X110368079Y-109078387D01*
X110360227Y-109056443D01*
X110354563Y-109033834D01*
X110351144Y-109010779D01*
X110350000Y-108987500D01*
X110350000Y-108512500D01*
X110351144Y-108489221D01*
X110354563Y-108466166D01*
X110360227Y-108443557D01*
X110368079Y-108421613D01*
X110378044Y-108400543D01*
X110390026Y-108380552D01*
X110403910Y-108361832D01*
X110419562Y-108344562D01*
X110436832Y-108328910D01*
X110455552Y-108315026D01*
X110475543Y-108303044D01*
X110496613Y-108293079D01*
X110518557Y-108285227D01*
X110541166Y-108279563D01*
X110564221Y-108276144D01*
X110587500Y-108275000D01*
X111162500Y-108275000D01*
X111185779Y-108276144D01*
X111185779Y-108276144D01*
G37*
D12*
X110875000Y-108750000D03*
D11*
G36*
X109435779Y-108276144D02*
G01*
X109458834Y-108279563D01*
X109481443Y-108285227D01*
X109503387Y-108293079D01*
X109524457Y-108303044D01*
X109544448Y-108315026D01*
X109563168Y-108328910D01*
X109580438Y-108344562D01*
X109596090Y-108361832D01*
X109609974Y-108380552D01*
X109621956Y-108400543D01*
X109631921Y-108421613D01*
X109639773Y-108443557D01*
X109645437Y-108466166D01*
X109648856Y-108489221D01*
X109650000Y-108512500D01*
X109650000Y-108987500D01*
X109648856Y-109010779D01*
X109645437Y-109033834D01*
X109639773Y-109056443D01*
X109631921Y-109078387D01*
X109621956Y-109099457D01*
X109609974Y-109119448D01*
X109596090Y-109138168D01*
X109580438Y-109155438D01*
X109563168Y-109171090D01*
X109544448Y-109184974D01*
X109524457Y-109196956D01*
X109503387Y-109206921D01*
X109481443Y-109214773D01*
X109458834Y-109220437D01*
X109435779Y-109223856D01*
X109412500Y-109225000D01*
X108837500Y-109225000D01*
X108814221Y-109223856D01*
X108791166Y-109220437D01*
X108768557Y-109214773D01*
X108746613Y-109206921D01*
X108725543Y-109196956D01*
X108705552Y-109184974D01*
X108686832Y-109171090D01*
X108669562Y-109155438D01*
X108653910Y-109138168D01*
X108640026Y-109119448D01*
X108628044Y-109099457D01*
X108618079Y-109078387D01*
X108610227Y-109056443D01*
X108604563Y-109033834D01*
X108601144Y-109010779D01*
X108600000Y-108987500D01*
X108600000Y-108512500D01*
X108601144Y-108489221D01*
X108604563Y-108466166D01*
X108610227Y-108443557D01*
X108618079Y-108421613D01*
X108628044Y-108400543D01*
X108640026Y-108380552D01*
X108653910Y-108361832D01*
X108669562Y-108344562D01*
X108686832Y-108328910D01*
X108705552Y-108315026D01*
X108725543Y-108303044D01*
X108746613Y-108293079D01*
X108768557Y-108285227D01*
X108791166Y-108279563D01*
X108814221Y-108276144D01*
X108837500Y-108275000D01*
X109412500Y-108275000D01*
X109435779Y-108276144D01*
X109435779Y-108276144D01*
G37*
D12*
X109125000Y-108750000D03*
M02*
